HIERARCHY
ROOT Hips
{
     OFFSET 20.89830 94.54850 2.60920
     CHANNELS 6 Xposition Yposition Zposition Zrotation Xrotation Yrotation
     JOINT Spine
     {
          OFFSET -0.00000 11.89050 -0.00000
          CHANNELS 3 Zrotation Xrotation Yrotation
          JOINT Spine1
          {
               OFFSET -0.00000 25.65740 0.12766
               CHANNELS 3 Zrotation Xrotation Yrotation
               JOINT HEad
               {
                    OFFSET -0.00000 8.73416 0.01134
                    CHANNELS 3 Zrotation Xrotation Yrotation
                    End Site
                    {
                         OFFSET -0.29000 12.77420 2.51395
                    }
               }
               JOINT LeftShoulder1
               {
                    OFFSET 8.99000 -0.36225 -0.22000
                    CHANNELS 3 Zrotation Xrotation Yrotation
                    JOINT LeftArm
                    {
                         OFFSET 10.28270 -0.00338 0.32212
                         CHANNELS 3 Zrotation Xrotation Yrotation
                         JOINT LeftForeArm
                         {
                              OFFSET 32.76690 0.09914 -1.42434
                              CHANNELS 3 Zrotation Xrotation Yrotation
                              JOINT LeftHand
                              {
                                   OFFSET 27.56430 0.08536 1.02216
                                   CHANNELS 3 Zrotation Xrotation Yrotation
                                   End Site
                                   {
                                        OFFSET 16.74430 -0.60000 1.50291
                                   }
                              }
                         }
                    }
               }
               JOINT RightShoulder
               {
                    OFFSET -8.99000 -0.36225 -0.22000
                    CHANNELS 3 Zrotation Xrotation Yrotation
                    JOINT RightArm
                    {
                         OFFSET -10.28270 -0.00338 0.32212
                         CHANNELS 3 Zrotation Xrotation Yrotation
                         JOINT RightForeArm
                         {
                              OFFSET -32.89710 0.09914 -1.42434
                              CHANNELS 3 Zrotation Xrotation Yrotation
                              JOINT RightHand
                              {
                                   OFFSET -27.49210 0.08536 1.02216
                                   CHANNELS 3 Zrotation Xrotation Yrotation
                                   End Site
                                   {
                                        OFFSET -16.63120 -0.60000 1.50291
                                   }
                              }
                         }
                    }
               }
          }
     }
     JOINT LeftUpLeg
     {
          OFFSET 8.94580 -8.66707 0.10165
          CHANNELS 3 Zrotation Xrotation Yrotation
          JOINT LeftLeg
          {
               OFFSET 0.00000 -44.42270 1.37270
               CHANNELS 3 Zrotation Xrotation Yrotation
               JOINT LeftFoot
               {
                    OFFSET -0.25355 -42.09240 -1.46059
                    CHANNELS 3 Zrotation Xrotation Yrotation
                    JOINT LeftToes
                    {
                         OFFSET -0.04000 -4.41509 8.49910
                         CHANNELS 3 Zrotation Xrotation Yrotation
                         End Site
                         {
                              OFFSET 0.08000 -0.04745 9.77979
                         }
                    }
               }
          }
     }
     JOINT RightUpLeg
     {
          OFFSET -8.94580 -8.66707 0.10165
          CHANNELS 3 Zrotation Xrotation Yrotation
          JOINT RightLeg
          {
               OFFSET -0.00000 -44.42270 1.37270
               CHANNELS 3 Zrotation Xrotation Yrotation
               JOINT RightFoot
               {
                    OFFSET 0.25355 -42.09240 -1.46059
                    CHANNELS 3 Zrotation Xrotation Yrotation
                    JOINT RightToes
                    {
                         OFFSET 0.04000 -4.41509 8.49910
                         CHANNELS 3 Zrotation Xrotation Yrotation
                         End Site
                         {
                              OFFSET -0.08000 -0.13745 9.77979
                         }
                    }
               }
          }
     }
}
MOTION
Frames: 21
Frame Time: 0.01667
20.89830 94.54850 2.60920 -9.06556 -9.69208 -29.35280 2.70913 9.80366 -1.03096 -1.52811 20.26740 -0.88264 0.36414 1.72891 6.21956 -0.00000 -0.00000 0.00000 -115.99600 -59.74370 -96.50770 -47.85050 54.65700 -70.09950 17.74120 7.24513 -13.46520 12.73570 0.63800 1.40506 82.06520 -15.72340 72.59210 15.80070 30.03470 89.68570 16.69180 11.79700 8.23060 19.87790 -10.20880 -17.93830 -14.54530 8.32773 41.57720 -12.14400 8.59877 1.65504 5.64137 -19.49410 -52.63530 -19.55300 8.12357 13.64790 34.60630 11.94090 -25.95480 -35.47100 1.79547 2.92042 9.61176 -47.08960 17.21390 
21.35350 94.51600 3.50604 -9.14844 -9.59794 -30.10280 2.54726 9.81903 -0.97139 -1.62743 20.25800 -0.67898 0.45483 1.75121 6.31328 -0.00000 -0.00000 0.00000 -117.72000 -59.97560 -98.09230 -48.10730 55.47040 -69.85610 18.01310 7.20125 -13.46980 12.76940 0.64432 1.43935 82.41880 -15.99740 73.04530 16.10140 30.41470 90.06980 16.61430 11.77860 8.16575 19.81240 -9.69136 -17.64420 -14.71540 7.89228 41.75490 -10.68940 11.43430 1.69346 5.12392 -21.48340 -53.39140 -20.21520 7.85596 13.25220 35.68280 12.67640 -27.69570 -34.89200 1.63011 2.81486 8.88445 -46.38730 15.59420 
21.77110 94.60900 4.21288 -9.06116 -9.65589 -30.68440 2.02763 9.92225 -0.90296 -1.87544 20.36560 -0.48559 0.64571 1.71249 6.33144 -0.00000 -0.00000 0.00000 -119.51100 -60.09760 -99.67430 -48.57890 56.29480 -69.20610 18.36310 7.13962 -13.50780 13.08160 0.66472 1.51086 82.68560 -16.35260 73.45160 16.30050 30.77340 90.48380 16.56120 11.76500 8.11386 19.73140 -8.86977 -16.58280 -14.93260 6.80134 42.07130 -9.01704 14.57960 1.64156 4.70863 -22.96470 -54.59950 -20.96300 7.56102 12.74240 36.88300 13.34240 -29.99060 -34.48570 1.47929 2.73100 8.08546 -45.29490 13.97020 
22.15520 94.77650 4.76758 -8.82202 -9.87147 -31.08930 1.25525 10.09740 -0.82887 -2.25669 20.57830 -0.31582 0.88427 1.63712 6.26786 -0.00000 -0.00000 0.00000 -121.19500 -60.10300 -101.06000 -49.29100 57.05110 -68.13210 18.76060 7.07017 -13.54530 13.62220 0.70019 1.62963 82.90200 -16.77910 73.75970 16.47220 31.11730 90.84600 16.52780 11.75550 8.07475 19.53110 -7.89956 -15.19290 -15.23250 5.39747 42.66950 -7.25311 17.49540 1.46590 4.44672 -23.77900 -56.21020 -21.77240 7.34365 12.11350 38.06990 13.83730 -32.81620 -34.54060 1.30793 2.68167 7.40723 -44.13010 12.66210 
22.51590 94.95750 5.24596 -8.45930 -10.21880 -31.34720 0.31692 10.32030 -0.73763 -2.69112 20.85230 -0.16490 1.03872 1.58051 6.13543 -0.00000 -0.00000 0.00000 -121.64600 -59.90450 -101.27100 -49.58410 57.28640 -67.28800 19.10160 7.02580 -13.48340 14.24410 0.74068 1.75579 83.11500 -17.22740 73.92280 16.69240 31.44740 91.07630 16.52380 11.74800 8.02814 19.08370 -6.94421 -13.84350 -15.52680 4.06898 43.46160 -5.40971 19.87270 1.16005 4.29667 -24.15160 -57.92350 -22.65030 7.33053 11.46920 39.14730 13.96840 -36.05410 -35.15810 1.02208 2.64293 6.91878 -43.10400 11.78570 
22.86210 95.11890 5.70260 -8.03754 -10.61680 -31.53890 -0.69563 10.56130 -0.60711 -3.12830 21.15290 -0.00765 0.98091 1.59817 5.98706 -0.00000 -0.00000 0.00000 -119.47300 -59.38920 -99.14520 -48.46920 56.43170 -67.66760 19.25950 7.04194 -13.23430 14.77310 0.77033 1.82905 83.34890 -17.61370 73.90850 16.91590 31.73790 91.18440 16.58220 11.74160 7.94364 18.37940 -6.12921 -12.65680 -15.67690 3.08766 44.26070 -3.60184 21.57450 0.77037 4.20725 -24.31510 -59.50760 -23.56160 7.60700 10.98180 40.07420 13.49910 -39.43880 -36.17610 0.50722 2.55752 6.52447 -42.06660 11.18750 
23.21720 95.17600 6.19928 -7.78389 -10.89950 -31.78780 -1.30557 10.74850 -0.45649 -3.43039 21.43460 0.18001 0.69033 1.71288 5.89418 -0.00000 -0.00000 0.00000 -114.62600 -58.43320 -94.68550 -45.86960 54.33340 -69.42890 19.15840 7.13019 -12.79540 15.10010 0.77870 1.81615 83.60410 -17.87390 73.71460 16.97550 31.95760 91.27530 16.73370 11.73600 7.79919 17.63120 -5.93119 -11.64490 -15.69110 3.42700 44.95740 -2.42878 22.21560 0.48183 4.18043 -24.30210 -60.86090 -24.28430 8.07728 10.69940 40.89660 12.60990 -42.68270 -37.09610 -0.41343 2.31660 6.07759 -40.62740 10.65310 
23.55690 95.20660 6.70198 -7.62032 -11.08770 -32.11620 -1.72285 10.90360 -0.28357 -3.59063 21.68530 0.40064 0.26866 1.88127 5.89355 -0.00000 -0.00000 0.00000 -108.62900 -57.03180 -89.21150 -42.73910 51.43190 -71.77380 18.80540 7.27294 -12.24580 15.18670 0.76750 1.73743 83.89690 -18.01040 73.38800 16.71430 32.10220 91.45430 16.97000 11.73040 7.59991 16.97160 -5.93964 -10.99430 -15.71020 4.12796 45.64590 -1.76351 22.15600 0.30839 4.24259 -24.06750 -61.87310 -24.88980 8.71870 10.70190 41.57530 11.24670 -45.60340 -37.48330 -1.60939 1.93099 5.52047 -38.53740 10.11890 
23.86500 95.24380 7.19257 -7.47877 -11.18700 -32.54380 -2.06907 11.03380 -0.09581 -3.69108 21.89740 0.64339 -0.15166 2.02481 5.96775 -0.00000 -0.00000 0.00000 -103.22500 -55.47280 -84.17900 -40.03700 48.50040 -73.88850 18.28840 7.43128 -11.72230 15.04390 0.74810 1.65331 84.23940 -18.07940 73.00040 16.10300 32.18350 91.75210 17.25000 11.72480 7.37656 16.47970 -5.95278 -10.78960 -15.88440 4.67706 46.43660 -1.46266 21.66470 0.22705 4.37681 -23.67210 -62.46380 -25.44160 9.42232 10.93410 42.11730 9.54632 -48.20350 -37.23170 -2.93014 1.46231 4.88840 -35.89210 9.58091 
24.13880 95.28040 7.66914 -7.32810 -11.17250 -33.09760 -2.35791 11.12500 0.09953 -3.76907 22.04130 0.90377 -0.48414 2.09588 6.06726 -0.00000 -0.00000 0.00000 -99.30990 -54.18240 -80.30760 -38.22070 46.22750 -75.38630 17.74590 7.56288 -11.36500 14.75540 0.73254 1.61531 84.55900 -18.14540 72.60670 15.28980 32.18830 92.10270 17.54580 11.72040 7.15785 16.16090 -6.00570 -10.88350 -16.22930 5.09894 47.33420 -1.41159 20.93470 0.20942 4.51374 -23.29490 -62.65910 -25.96290 10.06880 11.25650 42.55740 7.68919 -50.53430 -36.66120 -4.24881 0.98918 4.25558 -33.04500 9.00757 
24.38380 95.31280 8.12234 -7.14201 -11.04500 -33.77270 -2.62870 11.17170 0.30134 -3.85472 22.10140 1.18085 -0.68621 2.08219 6.12869 -0.00000 -0.00000 0.00000 -96.86870 -53.39100 -77.61030 -37.30290 44.89260 -76.23490 17.29050 7.64569 -11.23380 14.47040 0.72548 1.62512 84.71610 -18.25420 72.24010 14.54210 32.09590 92.37580 17.84520 11.71850 6.95928 15.94450 -6.12855 -10.99080 -16.63230 5.48093 48.21640 -1.48126 20.16780 0.22145 4.59783 -23.07080 -62.56170 -26.48370 10.61150 11.52590 42.93110 5.77261 -52.58610 -36.20810 -5.41466 0.58334 3.71236 -30.45060 8.43866 
24.61120 95.34260 8.53742 -6.91965 -10.84450 -34.52020 -2.90867 11.18420 0.49924 -3.96540 22.09640 1.45680 -0.73102 1.97419 6.08360 -0.00000 -0.00000 0.00000 -95.42190 -53.02650 -75.78640 -37.01370 44.35170 -76.61290 16.96090 7.68363 -11.28640 14.32040 0.72242 1.63421 84.62320 -18.41670 71.92280 14.05810 31.92590 92.48360 18.09200 11.71690 6.79983 15.74680 -6.29940 -10.85670 -16.95240 5.87373 48.93950 -1.63712 19.47940 0.25346 4.64879 -22.93740 -62.37270 -27.03830 11.08210 11.63390 43.28550 3.83983 -54.29090 -36.07230 -6.30013 0.28414 3.31409 -28.43250 7.97410 
24.82690 95.36870 8.90295 -6.66772 -10.63000 -35.27280 -3.20741 11.18340 0.67299 -4.10518 22.06890 1.69255 -0.60774 1.76278 5.86603 -0.00000 -0.00000 0.00000 -94.46310 -52.85560 -74.51380 -36.95660 44.26920 -76.79650 16.75580 7.69247 -11.42400 14.31910 0.71224 1.57461 84.32170 -18.59460 71.67530 13.85710 31.72630 92.45470 18.18750 11.70760 6.68660 15.50600 -6.47539 -10.38110 -17.10660 6.27811 49.46510 -1.93643 18.87760 0.31752 4.73643 -22.69910 -62.33690 -27.65820 11.52540 11.52910 43.67860 1.94734 -55.58680 -36.14230 -6.91606 0.07827 3.03134 -26.90450 7.65273 
25.01530 95.34030 9.20311 -6.31501 -10.49520 -35.99630 -3.69213 11.19490 0.84264 -4.29410 22.06330 1.85130 -0.32650 1.45106 5.42376 -0.00000 -0.00000 0.00000 -93.66300 -52.64850 -73.56430 -36.79180 44.32580 -77.02300 16.67140 7.68670 -11.54800 14.37290 0.68767 1.42108 83.96620 -18.75410 71.52250 13.83980 31.55140 92.38620 18.08070 11.68250 6.59645 15.10630 -6.74154 -9.59877 -17.11380 6.89130 49.85210 -2.49764 18.25250 0.43711 4.90666 -22.23260 -62.53090 -28.33450 11.37780 10.98130 44.16870 1.34643 -56.80680 -35.70140 -7.72606 -0.19385 2.77522 -25.42820 7.40380 
25.18220 95.29760 9.45228 -5.94826 -10.40210 -36.68490 -4.15983 11.21890 0.95796 -4.45494 22.08980 1.92353 0.07889 1.07102 4.72677 -0.00000 -0.00000 0.00000 -92.79660 -52.23240 -72.74850 -36.35940 44.25990 -77.39950 16.70510 7.67501 -11.59700 14.40030 0.65627 1.23273 83.73300 -18.93940 71.47470 13.90610 31.46820 92.34680 17.82940 11.64490 6.51352 14.68440 -6.99331 -8.64700 -17.05140 7.50349 50.12240 -3.17672 17.62650 0.57648 5.15427 -21.56030 -62.79490 -29.02630 11.17370 10.24130 44.67260 0.96365 -57.68370 -35.03700 -8.47793 -0.43862 2.46505 -23.57030 7.07252 
25.33350 95.28130 9.67163 -5.64489 -10.31020 -37.38630 -4.47369 11.24440 1.00067 -4.57943 22.13430 1.92025 0.53904 0.70001 3.77025 -0.00000 -0.00000 0.00000 -91.64760 -51.48710 -71.85920 -35.64090 43.86340 -77.94030 16.85280 7.66006 -11.55570 14.40570 0.63547 1.11016 83.70350 -19.23700 71.50350 14.04960 31.52510 92.31800 17.55080 11.60920 6.45586 14.37530 -7.12927 -7.71666 -17.03480 7.92900 50.33500 -3.81891 17.01720 0.70105 5.45144 -20.75360 -62.87700 -29.64160 10.99980 9.40535 45.17210 0.61147 -58.27690 -34.18070 -9.16956 -0.65202 2.08017 -21.16080 6.53088 
25.46670 95.27810 9.87228 -5.40986 -10.22060 -38.16620 -4.69525 11.25840 0.99460 -4.65732 22.16700 1.84771 0.98896 0.43387 2.57433 -0.00000 -0.00000 0.00000 -90.12480 -50.38580 -70.76640 -34.67880 43.06240 -78.62850 17.11080 7.64119 -11.43540 14.43970 0.63702 1.11406 83.83110 -19.66760 71.54710 14.32960 31.70550 92.23770 17.32020 11.58440 6.43732 14.21270 -7.19601 -7.01601 -17.18880 8.25342 50.62000 -4.40682 16.34860 0.80557 5.77157 -19.85810 -62.56280 -30.18190 10.83200 8.56695 45.67220 0.26951 -58.77500 -33.12120 -9.83442 -0.84177 1.66534 -18.33560 5.82448 
25.58260 95.26850 10.06120 -5.24960 -10.12020 -39.06600 -4.87260 11.25020 0.95188 -4.67216 22.16280 1.70433 1.43508 0.33189 1.16143 -0.00000 -0.00000 0.00000 -88.36730 -49.02010 -69.49520 -33.57660 41.97250 -79.41370 17.47140 7.61878 -11.24650 14.54300 0.65762 1.21802 84.00580 -20.14750 71.53480 14.73540 31.94080 92.10370 17.13270 11.56840 6.44824 14.21310 -7.26435 -6.67118 -17.57200 8.58705 51.08260 -4.93793 15.55420 0.88713 6.08105 -18.92360 -61.73780 -30.63630 10.64900 7.79181 46.16530 -0.09549 -59.40200 -31.93570 -10.48040 -1.00932 1.29276 -15.50560 5.15759 
25.68050 95.23660 10.24340 -5.16160 -10.01070 -40.11700 -5.04801 11.21950 0.88480 -4.62513 22.11880 1.50113 1.94648 0.37551 -0.45836 -0.00000 -0.00000 0.00000 -86.68500 -47.56830 -68.19000 -32.49730 40.86490 -80.19990 17.91990 7.59294 -11.00890 14.75630 0.68295 1.33033 84.11830 -20.55550 71.41920 15.15100 32.17100 91.99780 16.94930 11.55640 6.48293 14.34560 -7.35710 -6.61820 -18.13990 9.00624 51.72580 -5.39712 14.62630 0.94193 6.33998 -18.02670 -60.43010 -31.00210 10.45160 7.09068 46.62360 -0.51542 -60.30370 -30.86010 -11.04010 -1.14143 1.02955 -13.30860 4.69234 
25.75660 95.17670 10.42220 -5.13547 -9.91527 -41.36320 -5.25823 11.17800 0.80969 -4.54991 22.05710 1.26974 2.58732 0.46085 -2.26031 -0.00000 -0.00000 0.00000 -85.39900 -46.23530 -67.01610 -31.56490 40.04830 -80.89880 18.40630 7.56298 -10.77680 15.12980 0.69964 1.36521 84.09580 -20.80490 71.18810 15.46090 32.37930 92.01280 16.74690 11.54540 6.53728 14.55000 -7.42635 -6.65146 -18.78700 9.52736 52.48150 -5.77862 13.60890 0.97099 6.52997 -17.21670 -58.79730 -31.29870 10.24660 6.43629 47.02570 -0.99105 -61.44770 -30.16620 -11.42650 -1.22789 0.90809 -12.21160 4.40620 
25.80960 95.09790 10.60150 -5.16436 -9.85042 -42.86460 -5.50695 11.14050 0.74192 -4.48743 22.00880 1.05272 3.35538 0.45429 -4.20093 -0.00000 -0.00000 0.00000 -84.68320 -45.14450 -66.06160 -30.80690 39.67760 -81.48010 18.81450 7.53477 -10.61040 15.64450 0.69621 1.26594 83.96790 -20.83880 70.85430 15.62410 32.57730 92.19240 16.54200 11.53230 6.58009 14.78680 -7.38835 -6.59360 -19.42390 10.09660 53.32570 -6.10986 12.55620 0.98285 6.66396 -16.48050 -57.04060 -31.54930 10.01160 5.79436 47.37470 -1.46602 -62.64400 -29.89250 -11.66660 -1.28513 0.89016 -11.99140 4.20227 
